<?xml version="1.0" encoding="utf-8"?>
<!-- Generator: Adobe Illustrator 15.0.0, SVG Export Plug-In . SVG Version: 6.00 Build 0)  -->
<!DOCTYPE svg PUBLIC "-//W3C//DTD SVG 1.1//EN" "http://www.w3.org/Graphics/SVG/1.1/DTD/svg11.dtd">
<svg version="1.1" id="Layer_1" xmlns="http://www.w3.org/2000/svg" xmlns:xlink="http://www.w3.org/1999/xlink" x="0px" y="0px"
	 width="50px" height="50px" viewBox="0 0 50 50" enable-background="new 0 0 50 50" xml:space="preserve">
<g>
	<defs>
		<path id="SVGID_1_" d="M3.38,13.494h2.608v19.048c0,0.921,0.721,1.643,1.644,1.643h6.018L6.229,45.709
			c-0.482,0.76-0.282,1.761,0.481,2.241c0.28,0.16,0.562,0.24,0.883,0.24c0.521,0,1.082-0.282,1.362-0.761L17.5,34.144h14.921
			l8.543,13.326c0.321,0.48,0.844,0.761,1.364,0.761c0.32,0,0.603-0.079,0.884-0.24c0.761-0.48,1.003-1.482,0.481-2.24
			l-7.383-11.565h6.057c0.925,0,1.645-0.722,1.645-1.643V13.494h2.607c0.925,0,1.645-0.721,1.645-1.639V3.409
			c0-0.918-0.72-1.639-1.645-1.639H3.38c-0.922,0-1.645,0.721-1.645,1.639v8.446C1.735,12.773,2.458,13.494,3.38,13.494z
			 M40.726,30.942h-6.939c-0.362-0.12-0.721-0.12-1.083,0H9.276V13.494h31.488v17.449H40.726z M4.943,5.05h39.993v5.163H4.984V5.05
			H4.943z"/>
	</defs>
	<clipPath id="SVGID_2_">
		<use xlink:href="#SVGID_1_"  overflow="visible"/>
	</clipPath>
	<rect x="-11.979" y="-11.946" clip-path="url(#SVGID_2_)" fill="#FFFFFF" width="73.958" height="73.891"/>
</g>
<g>
	<defs>
		<path id="SVGID_3_" d="M14.129,27.742c0.402,0,0.841-0.161,1.163-0.48l2.607-2.601l5.377,1.399c0.601,0.161,1.242-0.04,1.684-0.52
			l5.453-6.482c0.605-0.681,0.481-1.722-0.197-2.32c-0.683-0.603-1.726-0.482-2.327,0.198l-4.814,5.682l-5.294-1.358
			c-0.562-0.161-1.164,0-1.565,0.439l-3.288,3.281c-0.643,0.641-0.643,1.681,0,2.32C13.288,27.581,13.688,27.742,14.129,27.742"/>
	</defs>
	<clipPath id="SVGID_4_">
		<use xlink:href="#SVGID_3_"  overflow="visible"/>
	</clipPath>
	<rect x="-1.27" y="2.634" clip-path="url(#SVGID_4_)" fill="#FFFFFF" width="45.79" height="38.822"/>
</g>
</svg>
