<?xml version="1.0" encoding="utf-8"?>
<!-- Generator: Adobe Illustrator 15.0.0, SVG Export Plug-In . SVG Version: 6.00 Build 0)  -->
<!DOCTYPE svg PUBLIC "-//W3C//DTD SVG 1.1//EN" "http://www.w3.org/Graphics/SVG/1.1/DTD/svg11.dtd">
<svg version="1.1" id="Layer_1" xmlns="http://www.w3.org/2000/svg" xmlns:xlink="http://www.w3.org/1999/xlink" x="0px" y="0px"
	 width="50px" height="50px" viewBox="0 0 50 50" enable-background="new 0 0 50 50" xml:space="preserve">
<g>
	<defs>
		<path id="SVGID_1_" d="M19.373,38.243H7.997c-0.623,0-1.126,0.516-1.126,1.151c0,0.635,0.503,1.149,1.126,1.149h11.376
			c0.623,0,1.125-0.515,1.125-1.149C20.499,38.759,19.996,38.243,19.373,38.243z"/>
	</defs>
	<clipPath id="SVGID_2_">
		<use xlink:href="#SVGID_1_"  overflow="visible"/>
	</clipPath>
	<rect x="-5.591" y="25.781" clip-path="url(#SVGID_2_)" fill="#FFFFFF" width="38.552" height="27.223"/>
</g>
<g>
	<defs>
		<path id="SVGID_3_" d="M36.383,38.243H25.006c-0.622,0-1.127,0.516-1.127,1.151c0,0.635,0.506,1.149,1.127,1.149h11.377
			c0.621,0,1.127-0.515,1.127-1.149C37.51,38.759,37.004,38.243,36.383,38.243"/>
	</defs>
	<clipPath id="SVGID_4_">
		<use xlink:href="#SVGID_3_"  overflow="visible"/>
	</clipPath>
	<rect x="11.417" y="25.781" clip-path="url(#SVGID_4_)" fill="#FFFFFF" width="38.554" height="27.223"/>
</g>
<g>
	<defs>
		<path id="SVGID_5_" d="M36.383,9.487H7.997c-0.623,0-1.126,0.514-1.126,1.149s0.503,1.151,1.126,1.151h28.386
			c0.621,0,1.127-0.516,1.127-1.151S37.004,9.487,36.383,9.487"/>
	</defs>
	<clipPath id="SVGID_6_">
		<use xlink:href="#SVGID_5_"  overflow="visible"/>
	</clipPath>
	<rect x="-5.591" y="-2.974" clip-path="url(#SVGID_6_)" fill="#FFFFFF" width="55.563" height="27.223"/>
</g>
<g>
	<defs>
		<path id="SVGID_7_" d="M36.383,15.238H25.006c-0.622,0-1.127,0.514-1.127,1.149s0.506,1.151,1.127,1.151h11.377
			c0.621,0,1.127-0.516,1.127-1.151S37.004,15.238,36.383,15.238"/>
	</defs>
	<clipPath id="SVGID_8_">
		<use xlink:href="#SVGID_7_"  overflow="visible"/>
	</clipPath>
	<rect x="11.417" y="2.777" clip-path="url(#SVGID_8_)" fill="#FFFFFF" width="38.554" height="27.223"/>
</g>
<g>
	<defs>
		<path id="SVGID_9_" d="M36.383,20.99H25.006c-0.622,0-1.127,0.513-1.127,1.148s0.506,1.152,1.127,1.152h11.377
			c0.621,0,1.127-0.517,1.127-1.152S37.004,20.99,36.383,20.99"/>
	</defs>
	<clipPath id="SVGID_10_">
		<use xlink:href="#SVGID_9_"  overflow="visible"/>
	</clipPath>
	<rect x="11.417" y="8.528" clip-path="url(#SVGID_10_)" fill="#FFFFFF" width="38.554" height="27.223"/>
</g>
<g>
	<defs>
		<path id="SVGID_11_" d="M36.383,26.741H25.006c-0.622,0-1.127,0.516-1.127,1.15c0,0.636,0.506,1.149,1.127,1.149h11.377
			c0.621,0,1.127-0.514,1.127-1.149C37.51,27.257,37.004,26.741,36.383,26.741"/>
	</defs>
	<clipPath id="SVGID_12_">
		<use xlink:href="#SVGID_11_"  overflow="visible"/>
	</clipPath>
	<rect x="11.417" y="14.279" clip-path="url(#SVGID_12_)" fill="#FFFFFF" width="38.554" height="27.223"/>
</g>
<g>
	<defs>
		<path id="SVGID_13_" d="M36.383,32.492H25.006c-0.622,0-1.127,0.516-1.127,1.151c0,0.635,0.506,1.148,1.127,1.148h11.377
			c0.621,0,1.127-0.514,1.127-1.148C37.51,33.008,37.004,32.492,36.383,32.492"/>
	</defs>
	<clipPath id="SVGID_14_">
		<use xlink:href="#SVGID_13_"  overflow="visible"/>
	</clipPath>
	<rect x="11.417" y="20.03" clip-path="url(#SVGID_14_)" fill="#FFFFFF" width="38.554" height="27.223"/>
</g>
<g>
	<defs>
		<path id="SVGID_15_" d="M19.373,32.492H7.997c-0.623,0-1.126,0.516-1.126,1.151c0,0.635,0.503,1.148,1.126,1.148h11.376
			c0.623,0,1.125-0.514,1.125-1.148C20.499,33.008,19.996,32.492,19.373,32.492"/>
	</defs>
	<clipPath id="SVGID_16_">
		<use xlink:href="#SVGID_15_"  overflow="visible"/>
	</clipPath>
	<rect x="-5.591" y="20.03" clip-path="url(#SVGID_16_)" fill="#FFFFFF" width="38.552" height="27.223"/>
</g>
<g>
	<defs>
		<rect id="SVGID_17_" x="0.111" y="2.585" width="49.79" height="44.86"/>
	</defs>
	<clipPath id="SVGID_18_">
		<use xlink:href="#SVGID_17_"  overflow="visible"/>
	</clipPath>
	<g clip-path="url(#SVGID_18_)" enable-background="new    ">
		<g>
			<defs>
				<rect id="SVGID_19_" x="0.111" y="2.585" width="49.845" height="44.86"/>
			</defs>
			<clipPath id="SVGID_20_">
				<use xlink:href="#SVGID_19_"  overflow="visible"/>
			</clipPath>
			<g clip-path="url(#SVGID_20_)">
				<defs>
					<path id="SVGID_21_" d="M19.373,15.238H7.997c-0.623,0-1.126,0.514-1.126,1.149v11.619c0,0.636,0.503,1.149,1.126,1.149h11.376
						c0.623,0,1.125-0.514,1.125-1.149V16.387C20.499,15.752,19.996,15.238,19.373,15.238z M9.122,26.855h9.125v-9.317H9.122V26.855
						z"/>
				</defs>
				<clipPath id="SVGID_22_">
					<use xlink:href="#SVGID_21_"  overflow="visible"/>
				</clipPath>
				<g clip-path="url(#SVGID_22_)">
					<defs>
						<rect id="SVGID_23_" x="0.111" y="2.585" width="49.845" height="44.86"/>
					</defs>
					<clipPath id="SVGID_24_">
						<use xlink:href="#SVGID_23_"  overflow="visible"/>
					</clipPath>
					<rect x="-5.591" y="2.777" clip-path="url(#SVGID_24_)" fill="#FFFFFF" width="38.552" height="38.839"/>
				</g>
			</g>
			<g clip-path="url(#SVGID_20_)">
				<defs>
					<path id="SVGID_25_" d="M47.649,8.336h-3.382V4.885c0-1.269-1.01-2.3-2.253-2.3H2.364c-1.243,0-2.253,1.032-2.253,2.3v36.809
						c0,3.172,2.527,5.751,5.632,5.751h38.525c3.107,0,5.633-2.579,5.633-5.751V10.636C49.9,9.368,48.891,8.336,47.649,8.336z
						 M47.649,41.694c0,1.903-1.519,3.451-3.382,3.451H5.743c-1.863,0-3.379-1.548-3.379-3.451V4.885h39.651V39.97
						c0,1.584,1.263,2.877,2.816,2.877c0.622,0,1.127-0.518,1.127-1.152c0-0.636-0.505-1.15-1.127-1.15
						c-0.312,0-0.563-0.258-0.563-0.574V10.636h3.382V41.694z"/>
				</defs>
				<clipPath id="SVGID_26_">
					<use xlink:href="#SVGID_25_"  overflow="visible"/>
				</clipPath>
				<g clip-path="url(#SVGID_26_)">
					<defs>
						<rect id="SVGID_27_" x="0.111" y="2.585" width="49.845" height="44.86"/>
					</defs>
					<clipPath id="SVGID_28_">
						<use xlink:href="#SVGID_27_"  overflow="visible"/>
					</clipPath>
					<rect x="-12.35" y="-9.876" clip-path="url(#SVGID_28_)" fill="#FFFFFF" width="74.712" height="69.784"/>
				</g>
			</g>
		</g>
	</g>
</g>
</svg>
