<?xml version="1.0" encoding="utf-8"?>
<!-- Generator: Adobe Illustrator 19.0.0, SVG Export Plug-In . SVG Version: 6.00 Build 0)  -->
<svg version="1.1" id="Layer_1" xmlns="http://www.w3.org/2000/svg" xmlns:xlink="http://www.w3.org/1999/xlink" x="0px" y="0px"
	 viewBox="-280 372 50 50" style="enable-background:new -280 372 50 50;" xml:space="preserve">
<style type="text/css">
	.st0{clip-path:url(#SVGID_2_);fill:#A0A0A0;}
</style>
<g>
	<g>
		<defs>
			<path id="SVGID_1_" d="M-230.4,381.6c-1.8,0.8-3.8,1.4-5.8,1.6c2.1-1.3,3.7-3.3,4.5-5.6c-2,1.2-4.1,2-6.4,2.5
				c-1.9-2-4.5-3.2-7.4-3.2c-5.6,0-10.2,4.6-10.2,10.2c0,0.8,0.1,1.6,0.3,2.3c-8.4-0.4-15.9-4.5-20.9-10.7c-0.9,1.5-1.4,3.3-1.4,5.1
				c0,3.5,1.8,6.7,4.5,8.5c-1.7-0.1-3.2-0.5-4.6-1.3c0,0,0,0.1,0,0.1c0,4.9,3.5,9.1,8.1,10c-0.9,0.2-1.8,0.4-2.7,0.4
				c-0.7,0-1.3-0.1-1.9-0.2c1.3,4.1,5,7,9.5,7.1c-3.5,2.7-7.9,4.4-12.6,4.4c-0.8,0-1.6,0-2.4-0.1c4.5,2.9,9.8,4.6,15.6,4.6
				c18.7,0,28.9-15.5,28.9-29c0-0.4,0-0.9,0-1.3C-233.5,385.4-231.8,383.6-230.4,381.6l-34.9,13.5"/>
		</defs>
		<clipPath id="SVGID_2_">
			<use xlink:href="#SVGID_1_"  style="overflow:visible;"/>
		</clipPath>
		<rect x="-294.5" y="362.2" class="st0" width="78.7" height="69.6"/>
	</g>
</g>
</svg>
