<?xml version="1.0" encoding="utf-8"?>
<!-- Generator: Adobe Illustrator 15.0.0, SVG Export Plug-In . SVG Version: 6.00 Build 0)  -->
<!DOCTYPE svg PUBLIC "-//W3C//DTD SVG 1.1//EN" "http://www.w3.org/Graphics/SVG/1.1/DTD/svg11.dtd">
<svg version="1.1" id="Layer_1" xmlns="http://www.w3.org/2000/svg" xmlns:xlink="http://www.w3.org/1999/xlink" x="0px" y="0px"
	 width="50px" height="50px" viewBox="0 0 50 50" enable-background="new 0 0 50 50" xml:space="preserve">
<g>
	<defs>
		<path id="SVGID_1_" d="M25.26,26.79h0.311c2.837-0.046,5.133-1.03,6.828-2.913c3.727-4.144,3.106-11.249,3.039-11.929
			c-0.241-5.089-2.682-7.525-4.696-8.662C29.24,2.436,27.487,1.979,25.53,1.94h-0.163c-1.075,0-3.187,0.172-5.21,1.31
			c-2.034,1.137-4.513,3.57-4.756,8.698c-0.067,0.681-0.688,7.786,3.041,11.929C20.128,25.76,22.423,26.744,25.26,26.79
			 M17.987,12.188c0-0.029,0.01-0.058,0.01-0.078c0.319-6.848,5.25-7.581,7.36-7.581h0.116c2.615,0.056,7.059,1.108,7.359,7.581
			c0,0.029,0,0.059,0.009,0.078c0.011,0.065,0.688,6.561-2.392,9.981c-1.22,1.355-2.848,2.023-4.987,2.043h-0.096
			c-2.13-0.02-3.767-0.688-4.979-2.043C17.32,18.769,17.978,12.245,17.987,12.188"/>
	</defs>
	<clipPath id="SVGID_2_">
		<use xlink:href="#SVGID_1_"  overflow="visible"/>
	</clipPath>
	<rect x="2.885" y="-10.497" clip-path="url(#SVGID_2_)" fill="#FFFFFF" width="45.069" height="49.725"/>
</g>
<g>
	<defs>
		<path id="SVGID_3_" d="M45.316,38.576V38.55c0-0.078-0.01-0.155-0.01-0.241c-0.059-1.89-0.185-6.312-4.388-7.728
			c-0.029-0.009-0.067-0.017-0.097-0.025c-4.367-1.101-7.999-3.584-8.037-3.613c-0.591-0.41-1.405-0.267-1.819,0.316
			c-0.419,0.583-0.273,1.385,0.317,1.796c0.166,0.113,4.02,2.759,8.84,3.982c2.26,0.792,2.51,3.171,2.577,5.35
			c0,0.085,0,0.163,0.01,0.238c0.01,0.86-0.048,2.186-0.201,2.951c-1.569,0.876-7.72,3.915-17.075,3.915
			c-9.314,0-15.502-3.045-17.082-3.924c-0.154-0.766-0.223-2.093-0.203-2.952c0-0.078,0.009-0.153,0.009-0.237
			c0.068-2.18,0.32-4.558,2.577-5.35c4.822-1.223,8.675-3.877,8.841-3.984c0.589-0.411,0.735-1.212,0.319-1.795
			c-0.417-0.583-1.23-0.726-1.82-0.315c-0.04,0.028-3.651,2.511-8.038,3.612c-0.039,0.01-0.067,0.019-0.097,0.026
			c-4.202,1.424-4.329,5.847-4.387,7.728c0,0.087,0,0.162-0.009,0.237v0.029c-0.01,0.498-0.02,3.049,0.494,4.326
			c0.096,0.25,0.271,0.459,0.502,0.603c0.291,0.192,7.254,4.564,18.903,4.564c11.648,0,18.61-4.382,18.9-4.564
			c0.224-0.144,0.408-0.353,0.505-0.603C45.336,41.622,45.326,39.074,45.316,38.576"/>
	</defs>
	<clipPath id="SVGID_4_">
		<use xlink:href="#SVGID_3_"  overflow="visible"/>
	</clipPath>
	<rect x="-6.896" y="14.263" clip-path="url(#SVGID_4_)" fill="#FFFFFF" width="64.648" height="46.234"/>
</g>
</svg>
