<?xml version="1.0" encoding="utf-8"?>
<!-- Generator: Adobe Illustrator 15.0.0, SVG Export Plug-In . SVG Version: 6.00 Build 0)  -->
<!DOCTYPE svg PUBLIC "-//W3C//DTD SVG 1.1//EN" "http://www.w3.org/Graphics/SVG/1.1/DTD/svg11.dtd">
<svg version="1.1" id="Layer_1" xmlns="http://www.w3.org/2000/svg" xmlns:xlink="http://www.w3.org/1999/xlink" x="0px" y="0px"
	 width="50px" height="50px" viewBox="0 0 50 50" enable-background="new 0 0 50 50" xml:space="preserve">
<g enable-background="new    ">
	<g>
		<defs>
			<rect id="SVGID_1_" x="2.59" y="0.722" width="44.831" height="48.567"/>
		</defs>
		<clipPath id="SVGID_2_">
			<use xlink:href="#SVGID_1_"  overflow="visible"/>
		</clipPath>
		<g clip-path="url(#SVGID_2_)">
			<defs>
				<path id="SVGID_3_" d="M24.714,49.238c-12.199,0-22.124-9.251-22.124-20.625c0-1.477,0.168-2.953,0.501-4.387
					c0.401-1.72,2.307-2.878,4.172-2.502c0.918,0.186,1.701,0.693,2.208,1.426c0.507,0.735,0.677,1.611,0.479,2.464
					c-0.228,0.978-0.343,1.989-0.343,2.999c0,7.766,6.778,14.083,15.106,14.083c8.332,0,15.107-6.319,15.107-14.083
					c0-7.453-6.239-13.571-14.104-14.055l-0.001,4.645c0,1.7-1.262,2.592-2.508,2.592c-0.454,0-1.148-0.119-1.872-0.684
					l-9.703-7.571c-0.742-0.58-1.168-1.414-1.168-2.284c0-0.874,0.426-1.704,1.168-2.283l9.703-7.569
					c0.724-0.565,1.417-0.683,1.872-0.683c1.246,0,2.507,0.889,2.507,2.592v4.693c11.738,0.489,21.125,9.546,21.125,20.605
					C46.841,39.984,36.913,49.238,24.714,49.238 M6.518,23.517c-0.712,0-1.316,0.455-1.468,1.105
					c-0.303,1.302-0.457,2.647-0.457,3.991c0,10.341,9.025,18.757,20.12,18.757c11.095,0,20.12-8.416,20.12-18.757
					c0-10.343-9.025-18.757-20.12-18.757h-1.002V3.312c0-0.452-0.189-0.723-0.504-0.723c-0.1,0-0.308,0.033-0.584,0.248
					l-9.705,7.569c-0.286,0.224-0.449,0.533-0.449,0.85s0.165,0.627,0.449,0.85l9.705,7.571c0.277,0.215,0.485,0.249,0.584,0.249
					c0.315,0,0.504-0.27,0.504-0.722v-6.543h1.002c9.437,0,17.113,7.156,17.113,15.952c0,8.799-7.677,15.953-17.113,15.953
					c-9.436,0-17.112-7.154-17.112-15.953c0-1.144,0.131-2.285,0.389-3.394c0.084-0.367,0.012-0.743-0.206-1.056
					c-0.217-0.315-0.553-0.533-0.945-0.611C6.735,23.528,6.625,23.517,6.518,23.517"/>
			</defs>
			<clipPath id="SVGID_4_">
				<use xlink:href="#SVGID_3_"  overflow="visible"/>
			</clipPath>
			<g clip-path="url(#SVGID_4_)">
				<defs>
					<rect id="SVGID_5_" x="2.59" y="0.722" width="44.831" height="48.567"/>
				</defs>
				<clipPath id="SVGID_6_">
					<use xlink:href="#SVGID_5_"  overflow="visible"/>
				</clipPath>
				<rect x="-6.75" y="-8.617" clip-path="url(#SVGID_6_)" fill="#FFFFFF" width="62.929" height="67.194"/>
			</g>
		</g>
	</g>
</g>
</svg>
