<?xml version="1.0" encoding="utf-8"?>
<!-- Generator: Adobe Illustrator 19.0.0, SVG Export Plug-In . SVG Version: 6.00 Build 0)  -->
<svg version="1.1" id="Layer_1" xmlns="http://www.w3.org/2000/svg" xmlns:xlink="http://www.w3.org/1999/xlink" x="0px" y="0px"
	 viewBox="-280 372 50 50" style="enable-background:new -280 372 50 50;" xml:space="preserve">
<style type="text/css">
	.st0{clip-path:url(#SVGID_2_);}
	.st1{clip-path:url(#SVGID_4_);}
	.st2{clip-path:url(#SVGID_6_);enable-background:new    ;}
	.st3{clip-path:url(#SVGID_8_);}
	.st4{clip-path:url(#SVGID_10_);}
</style>
<g>
	<g>
		<defs>
			<path id="SVGID_1_" d="M-242.8,390.9c0-10.1-8.2-18.4-18.4-18.4s-18.4,8.2-18.4,18.4c0,10.1,8.2,18.4,18.4,18.4
				C-251,409.2-242.8,401-242.8,390.9 M-261.1,404.7c-7.6,0-13.8-6.2-13.8-13.8s6.2-13.8,13.8-13.8s13.8,6.2,13.8,13.8
				S-253.5,404.7-261.1,404.7"/>
		</defs>
		<clipPath id="SVGID_2_">
			<use xlink:href="#SVGID_1_"  style="overflow:visible;"/>
		</clipPath>
		<rect x="-291.6" y="360.4" class="st0" width="61" height="61"/>
	</g>
</g>
<g>
	<g>
		<defs>
			<rect id="SVGID_3_" x="-249.6" y="402.4" width="19.1" height="19.1"/>
		</defs>
		<clipPath id="SVGID_4_">
			<use xlink:href="#SVGID_3_"  style="overflow:visible;"/>
		</clipPath>
		<g class="st1">
			<g>
				<g>
					<defs>
						<rect id="SVGID_5_" x="-250.4" y="401.6" width="21.8" height="21.8"/>
					</defs>
					<clipPath id="SVGID_6_">
						<use xlink:href="#SVGID_5_"  style="overflow:visible;"/>
					</clipPath>
					<g class="st2">
						<g>
							<defs>
								<path id="SVGID_7_" d="M-231.8,413.7l-11.2-11.2c-1.7,2.6-3.9,4.8-6.5,6.5l11.2,11.2c1.8,1.8,4.7,1.8,6.5,0
									C-230.1,418.4-230.1,415.5-231.8,413.7"/>
							</defs>
							<clipPath id="SVGID_8_">
								<use xlink:href="#SVGID_7_"  style="overflow:visible;"/>
							</clipPath>
							<g class="st3">
								<g>
									<defs>
										<rect id="SVGID_9_" x="-250.4" y="401.6" width="21.8" height="21.8"/>
									</defs>
									<clipPath id="SVGID_10_">
										<use xlink:href="#SVGID_9_"  style="overflow:visible;"/>
									</clipPath>
									<rect x="-261.7" y="390.3" class="st4" width="43.3" height="43.3"/>
								</g>
							</g>
						</g>
					</g>
				</g>
			</g>
		</g>
	</g>
</g>
</svg>
