<?xml version="1.0" encoding="utf-8"?>
<!-- Generator: Adobe Illustrator 15.0.0, SVG Export Plug-In . SVG Version: 6.00 Build 0)  -->
<!DOCTYPE svg PUBLIC "-//W3C//DTD SVG 1.1//EN" "http://www.w3.org/Graphics/SVG/1.1/DTD/svg11.dtd">
<svg version="1.1" id="Layer_1" xmlns="http://www.w3.org/2000/svg" xmlns:xlink="http://www.w3.org/1999/xlink" x="0px" y="0px"
	 width="50px" height="50px" viewBox="0 0 50 50" enable-background="new 0 0 50 50" xml:space="preserve">
<g>
	<defs>
		<path id="SVGID_1_" d="M49.581,9.583c-1.825,0.81-3.781,1.36-5.836,1.605c2.097-1.264,3.708-3.259,4.466-5.641
			c-1.962,1.167-4.138,2.016-6.45,2.472c-1.853-1.981-4.492-3.219-7.413-3.219c-5.611,0-10.161,4.565-10.161,10.197
			c0,0.801,0.09,1.579,0.264,2.324C16.01,16.897,8.524,12.837,3.514,6.669C2.64,8.175,2.138,9.925,2.138,11.796
			c0,3.536,1.793,6.658,4.52,8.485c-1.666-0.051-3.232-0.51-4.601-1.274c-0.002,0.043-0.002,0.086-0.002,0.128
			c0,4.941,3.502,9.062,8.149,10.001c-0.853,0.233-1.75,0.358-2.676,0.358c-0.654,0-1.29-0.065-1.912-0.185
			c1.292,4.053,5.044,7,9.49,7.083c-3.476,2.735-7.856,4.365-12.616,4.365c-0.821,0-1.629-0.048-2.423-0.143
			c4.496,2.896,9.834,4.583,15.571,4.583c18.685,0,28.901-15.541,28.901-29.018c0-0.441-0.01-0.88-0.028-1.32
			C46.494,13.424,48.218,11.627,49.581,9.583L14.715,23.057"/>
	</defs>
	<use xlink:href="#SVGID_1_"  overflow="visible" fill-rule="evenodd" clip-rule="evenodd" fill="#31DFEC"/>
	<clipPath id="SVGID_2_">
		<use xlink:href="#SVGID_1_"  overflow="visible"/>
	</clipPath>
	<rect x="-14.534" y="-9.799" clip-path="url(#SVGID_2_)" fill="#31DFEC" width="78.714" height="69.598"/>
</g>
</svg>
