<?xml version="1.0" encoding="utf-8"?>
<!-- Generator: Adobe Illustrator 15.0.0, SVG Export Plug-In . SVG Version: 6.00 Build 0)  -->
<!DOCTYPE svg PUBLIC "-//W3C//DTD SVG 1.1//EN" "http://www.w3.org/Graphics/SVG/1.1/DTD/svg11.dtd">
<svg version="1.1" id="Layer_1" xmlns="http://www.w3.org/2000/svg" xmlns:xlink="http://www.w3.org/1999/xlink" x="0px" y="0px"
	 width="50px" height="50px" viewBox="0 0 50 50" enable-background="new 0 0 50 50" xml:space="preserve">
<g>
	<defs>
		<rect id="SVGID_1_" x="1.128" y="1.224" width="47.078" height="47.277"/>
	</defs>
	<clipPath id="SVGID_2_">
		<use xlink:href="#SVGID_1_"  overflow="visible"/>
	</clipPath>
	<g clip-path="url(#SVGID_2_)" enable-background="new    ">
		<g>
			<defs>
				<rect id="SVGID_3_" x="1.128" y="0.616" width="47.241" height="50.877"/>
			</defs>
			<clipPath id="SVGID_4_">
				<use xlink:href="#SVGID_3_"  overflow="visible"/>
			</clipPath>
			<g clip-path="url(#SVGID_4_)">
				<defs>
					<path id="SVGID_5_" d="M24.666,1.224c-12.979,0-23.538,10.604-23.538,23.638c0,13.035,10.559,23.64,23.538,23.64
						c12.98,0,23.54-10.604,23.54-23.64C48.206,11.828,37.646,1.224,24.666,1.224 M24.666,43.469
						c-10.216,0-18.529-8.347-18.529-18.607c0-10.259,8.313-18.605,18.529-18.605c10.219,0,18.531,8.346,18.531,18.605
						C43.197,35.122,34.885,43.469,24.666,43.469"/>
				</defs>
				<clipPath id="SVGID_6_">
					<use xlink:href="#SVGID_5_"  overflow="visible"/>
				</clipPath>
				<g clip-path="url(#SVGID_6_)">
					<defs>
						<rect id="SVGID_7_" x="1.128" y="0.616" width="47.241" height="50.877"/>
					</defs>
					<clipPath id="SVGID_8_">
						<use xlink:href="#SVGID_7_"  overflow="visible"/>
					</clipPath>
					<rect x="-17.042" y="-16.946" clip-path="url(#SVGID_8_)" fill="#7C7C7C" width="83.419" height="83.616"/>
				</g>
			</g>
		</g>
	</g>
</g>
<g>
	<defs>
		<path id="SVGID_9_" d="M36.936,24.135H26.354V11.359c0-1.072-0.865-1.944-1.936-1.944c-1.069,0-1.938,0.873-1.938,1.944v14.72
			c0,1.077,0.869,1.946,1.938,1.946h12.518c1.071,0,1.938-0.869,1.938-1.946C38.873,25.004,38.007,24.135,36.936,24.135"/>
	</defs>
	<clipPath id="SVGID_10_">
		<use xlink:href="#SVGID_9_"  overflow="visible"/>
	</clipPath>
	<rect x="4.309" y="-8.755" clip-path="url(#SVGID_10_)" fill="#686868" width="52.735" height="54.949"/>
</g>
</svg>
